<svg width="14" height="14" viewBox="0 0 14 14" fill="none" xmlns="http://www.w3.org/2000/svg">
<path fill-rule="evenodd" clip-rule="evenodd" d="M0 0.700002C0 0 0.774741 0 0.774741 0H1.53145C2.14273 0 2.39551 0.25176 2.5556 0.569262C2.7157 0.886765 2.94591 1.4 2.94591 1.4H13.3021C13.8339 1.4 14.1697 1.97401 13.9108 2.43601C13.9108 2.43601 11.7825 6.27902 11.5445 6.71302C11.3066 7.14702 10.8463 7.70002 9.93855 7.70002H4.96815L4.19844 9.10002H11.6815C11.6815 9.10002 12.5953 9.02504 12.5953 9.80002C12.5953 10.575 11.6815 10.5 11.6815 10.5H4.19844C3.13484 10.5 2.46308 9.35902 2.97389 8.42102L3.91854 6.71302L1.39948 1.4H0.774741C0.774741 1.4 0 1.4 0 0.700002ZM5.18796 6.47474L3.3837 2.54446H12.5134C12.3127 2.94611 12.0529 3.42498 11.7453 4.05501C11.4041 4.754 11.0523 5.27828 10.8027 5.73146C10.5111 6.26103 10.1738 6.44976 9.89974 6.47474C9.85745 6.4786 9.68112 6.47474 9.68112 6.47474H5.18796ZM4.19849 11.2C3.42878 11.2 2.80601 11.83 2.80601 12.6C2.80601 13.37 3.42878 14 4.19849 14C4.96821 14 5.59797 13.37 5.59797 12.6C5.59797 11.83 4.96821 11.2 4.19849 11.2ZM9.80341 12.6C9.80341 11.83 10.4262 11.2 11.1959 11.2C11.9656 11.2 12.5954 11.83 12.5954 12.6C12.5954 13.37 11.9656 14 11.1959 14C10.4262 14 9.80341 13.37 9.80341 12.6Z" fill="black"/>
</svg>
