<svg width="135" height="36" viewBox="0 0 135 36" fill="none" xmlns="http://www.w3.org/2000/svg">
<circle cx="18" cy="18" r="18" fill="url(#paint0_linear)"/>
<path d="M13.67 23.2518V9.35577H9.69279L9.34328 11.7903H7.55957V7.56001H22.1426V11.7903H20.383L20.0214 9.35577H16.0442V23.2518C15.2586 24.2233 14.3968 23.6622 13.67 23.2518Z" fill="white"/>
<path d="M11.7053 29.7499V28.2313L13.6698 27.8939V22.1089C14.3609 18.6425 15.2814 22.2517 16.0441 22.1089V27.8939L18.0086 28.2313V29.7499H11.7053Z" fill="white"/>
<path d="M16.9998 20.7229C17.9449 19.2284 18.8337 17.9082 20.0197 16.2304C21.1342 14.6538 22.482 14.1574 24.0443 14.1574C24.6995 14.1574 25.2343 14.3117 25.7941 14.6538L25.4627 16.2304C24.0163 15.9625 22.4863 16.0296 21.5696 17.382C20.7362 18.6114 20.0957 19.5941 19.4657 20.5608L25.6505 27.93L27.3017 28.2313V29.7499H21.5408V28.2313L22.8785 28.0626L22.8303 28.0023L18.0939 22.1089L16.9998 20.7229Z" fill="white"/>
<path d="M47.0622 24.9512H49.523V13.5291H53.1321L53.8088 11.4375H43.125V13.5291H47.0622V24.9512Z" fill="black"/>
<path d="M57.7017 25.1562C60.5931 25.1562 62.5617 22.9826 62.5617 20.0707C62.5617 17.1588 60.5931 15.0056 57.7017 15.0056C54.8103 15.0056 52.8622 17.1588 52.8622 20.0707C52.8622 22.9826 54.8103 25.1562 57.7017 25.1562ZM57.7017 23.1876C56.1638 23.1876 55.364 21.8752 55.364 20.0707C55.364 18.2866 56.1638 16.9742 57.7017 16.9742C59.2397 16.9742 60.0395 18.2866 60.0395 20.0707C60.0395 21.8752 59.2397 23.1876 57.7017 23.1876Z" fill="black"/>
<path d="M64.8455 29.8112H67.2857V24.9307C67.7574 25.0742 68.27 25.1562 68.7827 25.1562C71.8176 25.1562 73.8272 23.0441 73.8272 20.0707C73.8272 16.9742 72.0022 15.0056 68.5161 15.0056C67.1832 15.0056 65.9118 15.2517 64.8455 15.6208V29.8112ZM67.2857 22.88V17.1793C67.6548 17.0767 68.0034 17.0152 68.4341 17.0152C70.1771 17.0152 71.3255 17.9995 71.3255 20.0707C71.3255 21.9367 70.4027 23.1261 68.5981 23.1261C68.0855 23.1261 67.7163 23.0441 67.2857 22.88Z" fill="black"/>
<path d="M76.567 24.9512H79.0278V19.0248H79.0893L83.8673 24.9512H86.8817L81.1399 17.9995L86.5741 11.4375H83.7237L79.0893 17.1998H79.0278V11.4375H76.567V24.9512Z" fill="black"/>
<path d="M94.444 24.9512H96.4946C96.351 24.4385 96.31 23.5978 96.31 22.4699V18.5327C96.31 16.195 95.0181 15.0056 92.4138 15.0056C91.0604 15.0056 89.8095 15.3337 88.6612 15.9694L89.4609 17.5484C90.1581 17.1793 91.0399 16.8717 92.0037 16.8717C93.1315 16.8717 93.8698 17.3638 93.8698 18.4917V18.7993L92.2088 18.8608C91.2245 18.9018 90.3837 19.0659 89.707 19.4145C88.7022 19.9271 88.0665 20.7474 88.0665 22.0598C88.0665 23.9259 89.4404 25.1562 91.286 25.1562C92.4958 25.1562 93.3776 24.6641 94.0748 24.0284L94.444 24.9512ZM93.8698 20.4398V22.5109C93.5417 22.7775 92.8855 23.2286 91.9832 23.2286C91.1014 23.2286 90.5478 22.7365 90.5478 21.8957C90.5478 21.4036 90.7323 21.014 91.1424 20.7884C91.4705 20.6038 91.9217 20.5013 92.5574 20.4808L93.8698 20.4398Z" fill="black"/>
<path d="M98.7981 24.9512H101.238V18.4917C102.063 17.7729 102.698 17.1588 104.76 17.1588L105.135 15.2517C103.26 15.2517 101.916 15.558 101.136 16.3385L100.869 15.2517H98.7981V24.9512Z" fill="black"/>
<path d="M110.729 25.1562C111.693 25.1562 112.862 24.8691 113.559 24.3975L112.821 22.716C112.452 22.9621 111.919 23.1876 111.345 23.1876C110.709 23.1876 110.401 22.8595 110.401 21.9572V17.1588H112.917L113.334 15.2517H110.401V12.2783L107.961 12.996V15.2517H106.218L105.885 17.1588H107.961V22.5519C107.961 24.1719 109.007 25.1562 110.729 25.1562Z" fill="black"/>
<path d="M119.357 25.1562C122.249 25.1562 124.217 22.9826 124.217 20.0707C124.217 17.1588 122.249 15.0056 119.357 15.0056C116.466 15.0056 114.518 17.1588 114.518 20.0707C114.518 22.9826 116.466 25.1562 119.357 25.1562ZM119.357 23.1876C117.819 23.1876 117.019 21.8752 117.019 20.0707C117.019 18.2866 117.819 16.9742 119.357 16.9742C120.895 16.9742 121.695 18.2866 121.695 20.0707C121.695 21.8752 120.895 23.1876 119.357 23.1876Z" fill="black"/>
<path d="M126.042 24.9512H128.482V18.1636C129.2 17.5689 130.061 17.1383 130.861 17.1383C132.112 17.1383 132.358 18.1021 132.358 19.2914V24.9512H134.819V18.5327C134.819 15.7643 133.24 15.0056 131.702 15.0056C130.492 15.0056 129.405 15.5388 128.38 16.3385L128.134 15.2517H126.042V24.9512Z" fill="black"/>
<defs>
<linearGradient id="paint0_linear" x1="18" y1="0" x2="18" y2="36" gradientUnits="userSpaceOnUse">
<stop stop-color="#363A44"/>
<stop offset="1" stop-color="#181A1D"/>
</linearGradient>
</defs>
</svg>
