<svg width="486" height="534" viewBox="0 0 486 534" fill="none" xmlns="http://www.w3.org/2000/svg">
<g opacity="0.04">
<path d="M148.5 534C334.896 534 486 382.896 486 196.5C486 123.193 462.628 55.3445 422.929 -6.10352e-05H392.789C436.085 53.7572 462 122.102 462 196.5C462 369.641 321.641 510 148.5 510C94.7717 510 44.2001 496.484 0 472.667V499.659C44.8119 521.651 95.2138 534 148.5 534Z" fill="black"/>
<path d="M0 34.4208H67.3202V273.526L67.3171 273.541V382.01L30.4829 388.337V416.81H148.669V388.337L111.835 382.01V294.976L111.838 294.972V34.4208H186.41L193.189 80.0681H226.182V0.750305H0V34.4208Z" fill="black"/>
<path d="M186.378 163.32C164.14 194.779 147.475 219.532 129.755 247.554L150.268 273.541L239.077 384.044L239.981 385.173L214.897 388.337V416.81H322.914V388.337L291.955 382.688L175.989 244.516C187.802 226.39 199.813 207.964 215.438 184.912C232.626 159.556 261.314 158.298 288.434 163.32L294.648 133.76C284.151 127.345 274.124 124.452 261.839 124.452C232.545 124.452 207.274 133.76 186.378 163.32Z" fill="black"/>
</g>
</svg>
