<svg width="36" height="36" viewBox="0 0 36 36" fill="none" xmlns="http://www.w3.org/2000/svg">
<circle cx="18" cy="18" r="18" fill="url(#paint0_linear)"/>
<path d="M13.67 23.2518V9.35577H9.69279L9.34328 11.7903H7.55957V7.56001H22.1426V11.7903H20.383L20.0214 9.35577H16.0442V23.2518C15.2586 24.2233 14.3968 23.6622 13.67 23.2518Z" fill="white"/>
<path d="M11.7053 29.7499V28.2313L13.6698 27.8939V22.1089C14.3609 18.6425 15.2814 22.2517 16.0441 22.1089V27.8939L18.0086 28.2313V29.7499H11.7053Z" fill="white"/>
<path d="M16.9998 20.7229C17.9449 19.2284 18.8337 17.9082 20.0197 16.2304C21.1342 14.6538 22.482 14.1574 24.0443 14.1574C24.6995 14.1574 25.2343 14.3117 25.7941 14.6538L25.4627 16.2304C24.0163 15.9625 22.4863 16.0296 21.5696 17.382C20.7362 18.6114 20.0957 19.5941 19.4657 20.5608L25.6505 27.93L27.3017 28.2313V29.7499H21.5408V28.2313L22.8785 28.0626L22.8303 28.0023L18.0939 22.1089L16.9998 20.7229Z" fill="white"/>
<defs>
<linearGradient id="paint0_linear" x1="18" y1="0" x2="18" y2="36" gradientUnits="userSpaceOnUse">
<stop stop-color="#363A44"/>
<stop offset="1" stop-color="#181A1D"/>
</linearGradient>
</defs>
</svg>
