<svg width="11" height="11" viewBox="0 0 11 11" fill="none" xmlns="http://www.w3.org/2000/svg">
<path fill-rule="evenodd" clip-rule="evenodd" d="M3.38649 10.6257L5.86128 8.15096L8.33612 10.6257C8.49309 10.7827 8.68388 10.8613 8.90845 10.8613C9.13284 10.8613 9.32365 10.7827 9.48078 10.6257L10.6256 9.48086C10.7828 9.32367 10.8613 9.1329 10.8613 8.9084C10.8613 8.68397 10.7828 8.49305 10.6256 8.3361L8.15092 5.86129L10.6256 3.38655C10.7828 3.22936 10.8613 3.03859 10.8613 2.81425C10.8613 2.58966 10.7828 2.39889 10.6256 2.24178L9.48078 1.09694C9.32365 0.939923 9.13284 0.861328 8.90844 0.861328C8.68388 0.861328 8.49309 0.939924 8.33612 1.09694L5.86128 3.57168L3.38649 1.09694C3.22937 0.939923 3.03845 0.861328 2.81415 0.861328C2.58959 0.861328 2.39866 0.939923 2.24174 1.09694L1.09703 2.24178C0.939903 2.39889 0.861328 2.58966 0.861328 2.81425C0.861328 3.03859 0.939903 3.22936 1.09703 3.38655L3.57168 5.86129L1.09703 8.33609C0.939903 8.49305 0.861328 8.68397 0.861328 8.9084C0.861328 9.1329 0.939903 9.32367 1.09703 9.48086L2.24174 10.6257C2.39866 10.7827 2.58959 10.8613 2.81415 10.8613C3.03845 10.8613 3.22937 10.7827 3.38649 10.6257Z" fill="white"/>
</svg>
