<svg width="13" height="12" viewBox="0 0 13 12" fill="none" xmlns="http://www.w3.org/2000/svg">
<path fill-rule="evenodd" clip-rule="evenodd" d="M11.7299 8.95786L8.75701 5.99207L11.7299 3.02621C11.9184 2.83809 12.013 2.60946 12.013 2.34034C12.013 2.07143 11.9184 1.84275 11.7299 1.65445L10.3546 0.28252C10.1658 0.0941219 9.93661 0 9.66691 0C9.39731 0 9.16795 0.0941219 8.97941 0.28252L6.00643 3.24815L3.03354 0.28252C2.8447 0.0941219 2.61554 0 2.34603 0C2.07624 0 1.84707 0.0941219 1.65834 0.28252L0.28304 1.65445C0.0944161 1.84275 0 2.07143 0 2.34034C0 2.60946 0.0944161 2.83809 0.28304 3.02621L3.25594 5.99207L0.28304 8.95786C0.0944161 9.14614 0 9.37495 0 9.64375C0 9.91287 0.0944161 10.1417 0.28304 10.3297L1.65834 11.7015C1.84707 11.8898 2.07624 11.984 2.34603 11.984C2.61554 11.984 2.8447 11.8898 3.03354 11.7015L6.00643 8.73593L8.97941 11.7015C9.16795 11.8898 9.39731 11.984 9.66691 11.984C9.93661 11.984 10.1658 11.8898 10.3546 11.7015L11.7299 10.3297C11.9184 10.1417 12.013 9.91287 12.013 9.64375C12.013 9.37495 11.9184 9.14614 11.7299 8.95786Z" fill="#FA5255"/>
</svg>
