<svg width="14" height="14" viewBox="0 0 14 14" fill="none" xmlns="http://www.w3.org/2000/svg">
<path d="M10.0318 8.71595L10.0318 8.71593L10.0283 8.71483C9.7107 8.61502 9.35461 8.68766 9.0998 8.93337L9.09977 8.93334L9.09656 8.93656L7.7595 10.2736C6.04557 9.36115 4.63195 7.95311 3.71953 6.2401L5.05551 4.89805C5.3138 4.6475 5.38451 4.28781 5.28517 3.97171L5.28519 3.9717L5.28405 3.96825C5.04569 3.24672 4.91667 2.47318 4.91667 1.66667C4.91667 1.16193 4.50474 0.75 4 0.75H1.66667C1.16193 0.75 0.75 1.16193 0.75 1.66667C0.75 8.06474 5.93526 13.25 12.3333 13.25C12.8381 13.25 13.25 12.8381 13.25 12.3333V10C13.25 9.49526 12.8381 9.08333 12.3333 9.08333C11.5268 9.08333 10.7533 8.95431 10.0318 8.71595Z" fill="#999999" stroke="#999999" stroke-width="0.5"/>
</svg>
