<svg width="13" height="13" viewBox="0 0 13 13" fill="none" xmlns="http://www.w3.org/2000/svg">
<path fill-rule="evenodd" clip-rule="evenodd" d="M0 6.49995C0 2.9156 2.91478 0 6.49811 0L6.50189 0.000107889C10.0852 0.000107889 13 2.91571 13 6.50005C13 10.0843 10.0852 13 6.50189 13C5.18008 13 3.95379 12.6065 2.9262 11.9263L0.42781 12.7248L1.23772 10.3098C0.458429 9.23976 0 7.92146 0 6.49995ZM4.27098 2.98063C4.46192 2.98839 4.55745 2.99983 4.68348 3.30168C4.72419 3.39997 4.78012 3.53569 4.84141 3.68442C5.01597 4.10801 5.23403 4.63716 5.26795 4.70788C5.31377 4.80343 5.3597 4.93338 5.29469 5.05946C5.23782 5.18035 5.18757 5.23843 5.10394 5.33511C5.09767 5.34235 5.09121 5.34982 5.08455 5.35754C5.04367 5.40499 5.0035 5.44751 4.96344 5.48993C4.90988 5.54663 4.85651 5.60314 4.80186 5.67094C4.80033 5.67273 4.7988 5.67453 4.79727 5.67633C4.7107 5.77793 4.61663 5.88834 4.72553 6.07601C4.83626 6.26323 5.21824 6.88603 5.77985 7.38654C6.44636 7.97947 6.99681 8.2021 7.24509 8.30252C7.26721 8.31147 7.28694 8.31945 7.30414 8.32663C7.46069 8.39166 7.64796 8.37635 7.76257 8.25405C7.8868 8.1201 8.03612 7.91054 8.19149 7.69249C8.21775 7.65564 8.24419 7.61854 8.2707 7.58153C8.40051 7.39808 8.56471 7.37511 8.73668 7.44003C8.91241 7.50118 9.84081 7.95974 10.0317 8.05529C10.0707 8.07483 10.107 8.09228 10.1405 8.10837C10.2709 8.17107 10.3582 8.21306 10.3947 8.27691C10.4406 8.35715 10.4406 8.73547 10.2839 9.17882C10.1273 9.62196 9.50453 9.98896 9.00794 10.0959C8.668 10.1685 8.22477 10.2259 6.7311 9.60686C4.96192 8.87406 3.77604 7.15457 3.53483 6.80483C3.51562 6.77698 3.50241 6.75782 3.49536 6.74853C3.49268 6.74483 3.48949 6.74047 3.48582 6.73546C3.36446 6.56948 2.72373 5.69323 2.72373 4.78812C2.72373 3.88183 3.17127 3.42689 3.37169 3.22315C3.37748 3.21727 3.38305 3.2116 3.38841 3.20613C3.54506 3.04566 3.80479 2.97308 4.0532 2.97308C4.12585 2.97344 4.19848 2.97596 4.27098 2.98063Z" fill="#999999"/>
</svg>
